<svg xmlns="http://www.w3.org/2000/svg" xmlns:xlink="http://www.w3.org/1999/xlink" width="1920" height="569" viewBox="0 0 1920 569">
  <defs>
    <clipPath id="clip-path">
      <rect id="Area" width="1920" height="569" transform="translate(46.904 215.5)" fill="#fff"/>
    </clipPath>
    <filter id="Cloud" x="-174.002" y="16.998" width="2600.998" height="620.002" filterUnits="userSpaceOnUse">
      <feOffset dy="3" input="SourceAlpha"/>
      <feGaussianBlur stdDeviation="10" result="blur"/>
      <feFlood flood-opacity="0.102"/>
      <feComposite operator="in" in2="blur"/>
      <feComposite in="SourceGraphic"/>
    </filter>
  </defs>
  <g id="Cloud_01" data-name="Cloud 01" transform="translate(-46.904 -215.5)" clip-path="url(#clip-path)">
    <g transform="matrix(1, 0, 0, 1, 46.9, 215.5)" filter="url(#Cloud)">
      <path id="Cloud-2" data-name="Cloud" d="M-19517.094,17184.5v-30.539c-85.605-44.795-144-134.268-144-237.334,0-147.939,120.313-267.867,268.725-267.867a268.129,268.129,0,0,1,167.939,58.738,216.057,216.057,0,0,1,77.463-14.26,217.89,217.89,0,0,1,43.357,4.336,227.894,227.894,0,0,1,167.568-73.076,227.6,227.6,0,0,1,136.1,44.883,268.7,268.7,0,0,1,103.572-20.621,268.128,268.128,0,0,1,167.938,58.738,216.057,216.057,0,0,1,77.463-14.26,217.876,217.876,0,0,1,43.357,4.336,227.9,227.9,0,0,1,167.568-73.076,227.6,227.6,0,0,1,134.316,43.57,268.619,268.619,0,0,1,100.354-19.309,268.113,268.113,0,0,1,167.939,58.738,216.078,216.078,0,0,1,77.467-14.26,217.836,217.836,0,0,1,43.354,4.336,227.913,227.913,0,0,1,167.568-73.076,227.62,227.62,0,0,1,136.857,45.439,228.9,228.9,0,0,1,63.928-9.049c126.012,0,228.162,101.828,228.162,227.436s-102.15,227.441-228.162,227.441a227.632,227.632,0,0,1-136.852-45.439,228.969,228.969,0,0,1-63.934,9.049,229.765,229.765,0,0,1-48.051-5.055v110.18Z" transform="translate(19517.09 -16580.5)" fill="#9349de"/>
    </g>
  </g>
</svg>
