<svg xmlns="http://www.w3.org/2000/svg" xmlns:xlink="http://www.w3.org/1999/xlink" width="1920" height="569" viewBox="0 0 1920 569">
  <defs>
    <clipPath id="clip-path">
      <rect id="Area" width="1920" height="569" transform="translate(46.904 -109.5)" fill="#fff"/>
    </clipPath>
    <filter id="Union_23" x="-174.002" y="29.998" width="2600.998" height="620.002" filterUnits="userSpaceOnUse">
      <feOffset dy="3" input="SourceAlpha"/>
      <feGaussianBlur stdDeviation="10" result="blur"/>
      <feFlood flood-opacity="0.102"/>
      <feComposite operator="in" in2="blur"/>
      <feComposite in="SourceGraphic"/>
    </filter>
  </defs>
  <g id="Cloud_03" data-name="Cloud 03" transform="translate(-46.904 109.5)" clip-path="url(#clip-path)">
    <g id="Group_1529" data-name="Group 1529">
      <g transform="matrix(1, 0, 0, 1, 46.9, -109.5)" filter="url(#Union_23)">
        <path id="Union_23-2" data-name="Union 23" d="M-18219.523,17078.467q-10.143.9-20.52.908a228.837,228.837,0,0,1-67.268-10.047,215.536,215.536,0,0,1-143.658,54.52,216.435,216.435,0,0,1-63.982-9.6,268.262,268.262,0,0,1-181.418,70.254,268.6,268.6,0,0,1-214.508-106.494,231.312,231.312,0,0,1-25.166,1.369,228.85,228.85,0,0,1-67.27-10.047,215.531,215.531,0,0,1-143.656,54.52,216.435,216.435,0,0,1-63.982-9.6,268.263,268.263,0,0,1-181.42,70.254c-148.412,0-268.725-119.928-268.725-267.873s120.313-267.867,268.725-267.867a268.129,268.129,0,0,1,167.939,58.738,216.057,216.057,0,0,1,77.463-14.26,217.6,217.6,0,0,1,43.357,4.336,227.894,227.894,0,0,1,167.568-73.076,227.581,227.581,0,0,1,136.1,44.881,268.715,268.715,0,0,1,103.572-20.619,268.128,268.128,0,0,1,167.938,58.738,216.057,216.057,0,0,1,77.463-14.26,217.587,217.587,0,0,1,43.357,4.336,227.9,227.9,0,0,1,167.568-73.076,227.6,227.6,0,0,1,134.314,43.566,268.673,268.673,0,0,1,100.355-19.3,268.113,268.113,0,0,1,167.939,58.738,216.078,216.078,0,0,1,77.467-14.26,217.548,217.548,0,0,1,43.354,4.336,227.913,227.913,0,0,1,167.568-73.076,227.62,227.62,0,0,1,136.857,45.439,228.9,228.9,0,0,1,63.928-9.049c126.012,0,228.162,101.828,228.162,227.436s-102.15,227.441-228.162,227.441a227.632,227.632,0,0,1-136.852-45.439,229.112,229.112,0,0,1-63.934,9.049,228.811,228.811,0,0,1-67.264-10.047,215.544,215.544,0,0,1-143.658,54.52,216.432,216.432,0,0,1-63.986-9.6,268.249,268.249,0,0,1-181.42,70.254A268.588,268.588,0,0,1-18219.523,17078.467Z" transform="translate(19517.09 -16567.5)" fill="#560f9f"/>
      </g>
      <rect id="Rectangle_2141" data-name="Rectangle 2141" width="1920" height="447" transform="translate(46.904 76.5)" fill="#560f9f"/>
    </g>
  </g>
</svg>
