<svg xmlns="http://www.w3.org/2000/svg" xmlns:xlink="http://www.w3.org/1999/xlink" width="1920" height="569" viewBox="0 0 1920 569">
  <defs>
    <clipPath id="clip-path">
      <rect id="Area" width="1920" height="569" transform="translate(46.904 -39.5)" fill="#fff"/>
    </clipPath>
    <filter id="Union_25" x="-174.002" y="116.998" width="2600.998" height="620.002" filterUnits="userSpaceOnUse">
      <feOffset dy="3" input="SourceAlpha"/>
      <feGaussianBlur stdDeviation="10" result="blur"/>
      <feFlood flood-opacity="0.102"/>
      <feComposite operator="in" in2="blur"/>
      <feComposite in="SourceGraphic"/>
    </filter>
  </defs>
  <g id="Mask_Group_12" data-name="Mask Group 12" transform="translate(-46.904 39.5)" clip-path="url(#clip-path)">
    <g id="Group_1531" data-name="Group 1531">
      <g transform="matrix(1, 0, 0, 1, 46.9, -39.5)" filter="url(#Union_25)">
        <path id="Union_25-2" data-name="Union 25" d="M-17570.238,17114.246a216.465,216.465,0,0,1-63.988,9.6,215.531,215.531,0,0,1-143.656-54.52,228.811,228.811,0,0,1-67.264,10.047q-10.374,0-20.52-.908a268.6,268.6,0,0,1-214.154,106.033,268.245,268.245,0,0,1-181.42-70.254,216.435,216.435,0,0,1-63.982,9.6,215.558,215.558,0,0,1-143.662-54.52,228.791,228.791,0,0,1-67.264,10.047,231.285,231.285,0,0,1-25.166-1.369,268.6,268.6,0,0,1-214.508,106.494,268.24,268.24,0,0,1-181.418-70.254,216.435,216.435,0,0,1-63.982,9.6,215.55,215.55,0,0,1-143.662-54.52,228.791,228.791,0,0,1-67.264,10.047,229.054,229.054,0,0,1-63.93-9.049,227.641,227.641,0,0,1-136.852,45.439c-126.012,0-228.166-101.828-228.166-227.441s102.154-227.436,228.166-227.436a228.958,228.958,0,0,1,63.928,9.049,227.6,227.6,0,0,1,136.854-45.439,227.9,227.9,0,0,1,167.568,73.076,217.558,217.558,0,0,1,43.357-4.336,216.057,216.057,0,0,1,77.463,14.26,268.128,268.128,0,0,1,167.938-58.738,268.694,268.694,0,0,1,103.568,20.617,227.634,227.634,0,0,1,136.105-44.879,227.894,227.894,0,0,1,167.568,73.076,217.558,217.558,0,0,1,43.357-4.336,216.057,216.057,0,0,1,77.463,14.26,268.129,268.129,0,0,1,167.939-58.738,268.691,268.691,0,0,1,100.357,19.3,227.62,227.62,0,0,1,134.316-43.566,227.891,227.891,0,0,1,167.563,73.076,217.645,217.645,0,0,1,43.357-4.336,216.1,216.1,0,0,1,77.469,14.26,268.1,268.1,0,0,1,167.934-58.738c148.414,0,268.727,119.928,268.727,267.867s-120.312,267.873-268.727,267.873A268.245,268.245,0,0,1-17570.238,17114.246Z" transform="translate(19517.09 -16480.5)" fill="#6e20be"/>
      </g>
      <rect id="Rectangle_2143" data-name="Rectangle 2143" width="1920" height="492" transform="translate(46.904 292.5)" fill="#6e20be"/>
    </g>
  </g>
</svg>
